# xmcd
#
# Track frame offsets:
# 150
# 13638
# 29295
# 55581
# 70120
# 91888
# 103212
# 120399
# 133186
# 157939
# 168680
# 185150
# 209687
# 224829
# 250613
#
# Disc length: 3460 seconds
#
#
# Revision: 0
# Processed by: cddbd v1.4PL0 Copyright (c) Steve Scherf et al.
# Submitted via: FreeRIP 2.51 
#
DISCID=d90d820f
DTITLE=Hurry Down Sunshine - Raw in Memphis
DYEAR=1999
DGENRE=Blues
TTITLE0=Down in Memphis
TTITLE1=Mystery Train
TTITLE2=Bluebird Blues
TTITLE3=Little By Little
TTITLE4=I Asked for Water
TTITLE5=Have Love, Will Travel
TTITLE6=Sally Mae
TTITLE7=Sally Mae Shuffle
TTITLE8=I Got a Good Woman
TTITLE9=It'll Be Me
TTITLE10=Green River Blues
TTITLE11=You Can Talk About Me
TTITLE12=I Got to Go
TTITLE13=Sun Don't Shine
TTITLE14=Tell Me Mama
EXTD=
EXTT0=
EXTT1=
EXTT2=
EXTT3=
EXTT4=
EXTT5=
EXTT6=
EXTT7=
EXTT8=
EXTT9=
EXTT10=
EXTT11=
EXTT12=
EXTT13=
EXTT14=
PLAYORDER=
